<svg width="1224" height="156" viewBox="0 0 1224 156" fill="none" xmlns="http://www.w3.org/2000/svg">
<mask id="mask0_3385_58571" style="mask-type:luminance" maskUnits="userSpaceOnUse" x="1071" y="52" width="153" height="50">
<path d="M1071.39 101.524V52.4983H1224V101.524H1071.39Z" fill="white"/>
</mask>
<g mask="url(#mask0_3385_58571)">
<path d="M1071.4 101.524V52.4983H1224V101.524H1071.4ZM1103.23 83.2621H1091V62.844H1085.55V88.1708H1103.23V83.2621ZM1121.84 71.5473C1120.87 70.4788 1119.67 69.6378 1118.33 69.0845C1117 68.5313 1115.55 68.2795 1114.1 68.3472C1112.75 68.3014 1111.4 68.529 1110.14 69.0163C1108.88 69.5035 1107.73 70.2402 1106.76 71.1821C1105.79 72.124 1105.02 73.2514 1104.5 74.4966C1103.98 75.7417 1103.72 77.0787 1103.74 78.4269C1103.74 84.31 1108.2 88.5066 1114.7 88.5066C1118.11 88.5116 1121.38 87.1724 1123.8 84.7819L1120.4 82.1811C1118.86 83.5501 1116.85 84.2867 1114.79 84.2426C1113.99 84.2793 1113.2 84.1588 1112.46 83.888C1111.71 83.6171 1111.03 83.2015 1110.45 82.6652L1124.2 76.9868C1123.95 74.9877 1123.14 73.1 1121.85 71.5461L1121.84 71.5473ZM1145.84 76.0945C1145.87 75.0533 1145.69 74.0165 1145.3 73.0499C1144.91 72.0834 1144.32 71.2082 1143.57 70.4801C1142.82 69.752 1141.93 69.1869 1140.95 68.8208C1139.97 68.4546 1138.93 68.2954 1137.88 68.3533C1136.65 68.3589 1135.44 68.6428 1134.33 69.1835C1133.23 69.7243 1132.26 70.5078 1131.5 71.475V68.6671H1126.12V88.1647H1131.5V77.0689C1131.51 76.5048 1131.63 75.948 1131.86 75.4319C1132.09 74.9159 1132.42 74.4513 1132.83 74.0662C1133.25 73.6811 1133.73 73.3834 1134.27 73.1911C1134.8 72.9987 1135.37 72.9157 1135.93 72.947C1136.5 72.9179 1137.07 73.0018 1137.61 73.1938C1138.14 73.3858 1138.64 73.6822 1139.06 74.0657C1139.48 74.4492 1139.82 74.9121 1140.06 75.4277C1140.3 75.9432 1140.43 76.5011 1140.46 77.0689V88.1647H1145.84V76.092V76.0945ZM1158.52 68.3533C1156.53 68.4233 1154.61 69.074 1152.99 70.2244C1151.38 71.3748 1150.13 72.974 1149.42 74.8227C1148.71 76.6713 1148.56 78.6877 1148.99 80.6205C1149.42 82.5534 1150.41 84.3171 1151.84 85.6921C1153.28 87.067 1155.08 87.9923 1157.04 88.3527C1158.99 88.713 1161.01 88.4925 1162.84 87.7185C1164.67 86.9446 1166.23 85.6514 1167.33 84.0003C1168.42 82.3491 1169.01 80.4129 1169.01 78.433C1168.99 77.0821 1168.71 75.7474 1168.17 74.5065C1167.64 73.2656 1166.86 72.1433 1165.88 71.2048C1164.91 70.2663 1163.75 69.5304 1162.49 69.0398C1161.23 68.5492 1159.88 68.3138 1158.52 68.3472V68.3533ZM1184.04 68.6769L1179.18 81.9555L1174.32 68.6769H1168.18L1176.24 88.1647H1182.13L1190.18 68.6769H1184.04ZM1199.91 68.3472C1197.92 68.4172 1196 69.0679 1194.38 70.2183C1192.77 71.3687 1191.52 72.9679 1190.81 74.8165C1190.1 76.6652 1189.95 78.6816 1190.38 80.6144C1190.81 82.5472 1191.8 84.311 1193.23 85.686C1194.66 87.0609 1196.47 87.9862 1198.42 88.3466C1200.38 88.7069 1202.4 88.4864 1204.23 87.7124C1206.06 86.9384 1207.62 85.6453 1208.72 83.9941C1209.81 82.343 1210.4 80.4068 1210.4 78.4269C1210.38 77.0765 1210.1 75.7425 1209.56 74.5023C1209.02 73.2621 1208.25 72.1405 1207.27 71.2027C1206.29 70.2648 1205.14 69.5295 1203.88 69.0393C1202.61 68.549 1201.27 68.3138 1199.91 68.3472ZM1199.91 83.9129C1199.2 83.903 1198.5 83.7524 1197.85 83.4699C1197.2 83.1874 1196.61 82.7787 1196.13 82.2676C1195.64 81.7566 1195.25 81.1534 1195 80.4935C1194.75 79.8336 1194.63 79.1302 1194.66 78.4244C1194.61 77.7188 1194.7 77.0106 1194.94 76.3442C1195.18 75.6778 1195.55 75.0677 1196.04 74.5522C1196.53 74.0367 1197.11 73.6269 1197.77 73.3485C1198.42 73.0702 1199.12 72.9293 1199.83 72.9348C1200.54 72.9446 1201.24 73.0953 1201.89 73.3778C1202.54 73.6604 1203.13 74.0693 1203.62 74.5805C1204.11 75.0917 1204.49 75.695 1204.74 76.355C1205 77.015 1205.11 77.7186 1205.09 78.4244C1205.13 79.1286 1205.03 79.8342 1204.79 80.4977C1204.55 81.1612 1204.17 81.7686 1203.69 82.2826C1203.2 82.7965 1202.62 83.2061 1201.97 83.4861C1201.32 83.766 1200.62 83.9104 1199.91 83.9105L1199.91 83.9129ZM1158.52 83.9129C1157.81 83.903 1157.11 83.7524 1156.46 83.4699C1155.81 83.1874 1155.23 82.7787 1154.74 82.2676C1154.25 81.7566 1153.87 81.1534 1153.61 80.4935C1153.36 79.8336 1153.24 79.1302 1153.27 78.4244C1153.22 77.7185 1153.31 77.0099 1153.55 76.3433C1153.79 75.6766 1154.17 75.0664 1154.65 74.5508C1155.14 74.0352 1155.73 73.6255 1156.38 73.3474C1157.04 73.0693 1157.74 72.9288 1158.45 72.9348C1159.16 72.9453 1159.86 73.0963 1160.51 73.379C1161.16 73.6617 1161.74 74.0705 1162.23 74.5814C1162.72 75.0922 1163.1 75.695 1163.35 76.3544C1163.61 77.0138 1163.72 77.7167 1163.7 78.422C1163.74 79.1263 1163.64 79.8322 1163.4 80.496C1163.16 81.1598 1162.79 81.7675 1162.3 82.2817C1161.82 82.796 1161.23 83.2057 1160.58 83.4859C1159.93 83.766 1159.23 83.9105 1158.52 83.9105L1158.52 83.9129ZM1110.07 74.5489C1110.56 73.9213 1111.19 73.4178 1111.91 73.0802C1112.63 72.7425 1113.41 72.5805 1114.21 72.6075C1115.1 72.6023 1115.97 72.8582 1116.71 73.3432C1117.45 73.8281 1118.03 74.5205 1118.38 75.3334L1108.98 79.2174C1108.71 77.5798 1109.1 75.9016 1110.07 74.5502L1110.07 74.5489Z" fill="#0C0C0C"/>
</g>
<g clip-path="url(#clip0_3385_58571)">
<path d="M933.362 55.7336C933.362 55.7336 926.435 62.3617 926.06 69.3643V70.675C926.36 76.3295 930.629 79.6623 930.629 79.6623C937.481 86.3654 954.071 94.791 957.965 96.7008C957.965 96.7008 958.19 96.8131 958.34 96.6633L958.414 96.5136V96.3638C947.779 73.184 933.362 55.7336 933.362 55.7336ZM955.756 102.393C955.681 102.093 955.381 102.093 955.381 102.093L927.745 103.067C930.741 108.422 935.796 112.541 941.076 111.305C944.671 110.369 952.91 104.64 955.606 102.692C955.831 102.505 955.756 102.355 955.756 102.355V102.393ZM956.055 99.4719C943.922 91.2709 920.406 78.7261 920.406 78.7261C919.844 80.4487 919.657 82.0964 919.619 83.5943V83.8564C919.619 87.8633 921.117 90.6718 921.117 90.6718C924.113 97.0004 929.88 98.9102 929.88 98.9102C932.501 100.034 935.122 100.071 935.122 100.071C935.572 100.146 951.599 100.071 955.868 100.071C956.055 100.071 956.168 99.8838 956.168 99.8838V99.6591C956.168 99.5468 956.055 99.4719 956.055 99.4719ZM953.546 44.6867C950.891 45.3646 948.524 46.8762 946.791 48.9994C945.059 51.1226 944.054 53.7455 943.922 56.4825V58.0179C944.035 60.2647 944.522 61.9498 944.522 61.9498C946.993 72.8095 958.976 90.5969 961.56 94.3416C961.747 94.5289 961.934 94.454 961.934 94.454C962.006 94.4229 962.067 94.37 962.107 94.3029C962.147 94.2357 962.166 94.1576 962.159 94.0795C966.129 54.3855 958.002 43.8254 958.002 43.8254C956.804 43.9003 953.546 44.6867 953.546 44.6867ZM984.624 53.1872C984.624 53.1872 982.789 46.4467 975.487 44.6492C975.487 44.6492 973.352 44.125 971.105 43.8254C971.105 43.8254 962.942 54.348 966.911 94.1169C966.949 94.3791 967.136 94.4165 967.136 94.4165C967.398 94.5289 967.51 94.3042 967.51 94.3042C970.207 90.4471 982.115 72.7346 984.549 61.9498C984.549 61.9498 985.897 56.7072 984.624 53.1872ZM973.689 102.131C973.689 102.131 973.427 102.131 973.352 102.318C973.352 102.318 973.315 102.58 973.464 102.692C976.086 104.602 984.137 110.182 987.994 111.305C987.994 111.305 988.593 111.492 989.604 111.53H990.128C992.712 111.455 997.243 110.144 1001.36 103.067L973.652 102.131H973.689ZM1003.01 70.6376C1003.53 62.9234 995.746 55.771 995.746 55.7336C995.746 55.7336 981.328 73.184 970.768 96.1765C970.768 96.1765 970.656 96.4761 970.843 96.6633L970.993 96.7008H971.218C975.187 94.7161 991.664 86.3279 998.479 79.6998C998.479 79.6998 1002.79 76.2172 1003.01 70.6376ZM1008.7 78.6512C1008.7 78.6512 985.185 91.2709 973.053 99.4344C973.053 99.4344 972.865 99.5842 972.94 99.8464C972.94 99.8464 973.053 100.071 973.202 100.071C977.546 100.071 994.023 100.071 994.435 99.9961C994.435 99.9961 996.569 99.9212 999.191 98.9102C999.191 98.9102 1005.03 97.0378 1008.07 90.4097C1008.07 90.4097 1010.8 84.9798 1008.7 78.6512Z" fill="#C91433"/>
</g>
<path d="M705.128 88.9151C697.046 88.9151 690.496 83.6262 690.496 77.1023C690.496 70.578 697.046 65.2942 705.128 65.2942C707.977 65.2942 710.636 65.9498 712.883 67.0864L705.128 77.1023L719.728 70.2989C718.141 68.2592 715.866 66.5017 713.116 65.1681C709.615 63.4767 704.746 62.4299 699.361 62.4299C691.681 62.4299 684.942 64.6825 681.185 68.0558C678.402 70.5495 676.746 73.6879 676.746 77.1021C676.746 80.5187 678.402 83.6595 681.185 86.1549C684.952 89.5324 691.59 91.7718 699.144 91.7718C706.697 91.7718 713.333 89.5307 717.103 86.1549C717.309 85.969 717.509 85.7814 717.698 85.5867L717.129 83.8647C714.48 86.916 710.093 88.9151 705.128 88.9151Z" fill="#C91433"/>
<path d="M753.532 91.062L747.404 72.6138C746.42 69.6326 743.056 67.4414 739.052 67.4414C738.013 67.4414 737.018 67.5912 736.095 67.8623L722.903 71.7336H736.47L738.789 78.7215C736.54 77.1594 733.611 76.2089 730.404 76.2089C724.035 76.2089 718.879 79.6532 718.879 83.9019C718.879 88.151 724.035 91.6004 730.404 91.6004C734.989 91.6004 739.043 89.7889 741.544 87.0059L742.889 91.062H753.532ZM734.841 88.1966C731.903 88.1966 729.522 86.2764 729.522 83.9019C729.522 81.531 731.903 79.609 734.841 79.609C737.779 79.609 740.162 81.531 740.162 83.9019C740.162 86.2764 737.779 88.1966 734.841 88.1966Z" fill="#C91433"/>
<path d="M778.515 67.4443C777.711 67.4443 776.95 67.5878 776.272 67.8447L767.802 71.0304C767.383 68.9954 765.193 67.4443 762.551 67.4443C761.751 67.4443 760.988 67.5878 760.302 67.8447L749.961 71.7334H757.231V91.062H767.874V73.8837C767.874 72.6984 769.063 71.7336 770.536 71.7336C772 71.7336 773.198 72.6984 773.198 73.8837V91.062H783.836V71.7334C783.836 69.363 781.452 67.4443 778.515 67.4443Z" fill="#C91433"/>
<path d="M845.257 67.4443C844.451 67.4443 843.686 67.5878 842.997 67.8447L834.536 71.0304C834.119 68.9954 831.929 67.4443 829.287 67.4443C828.487 67.4443 827.724 67.5878 827.036 67.8447L816.699 71.7334H823.967V91.062H834.608V73.8837C834.608 72.6984 835.799 71.7336 837.272 71.7336C838.741 71.7336 839.929 72.6984 839.929 73.8837V91.062H850.576V71.7334C850.576 69.363 848.191 67.4443 845.257 67.4443Z" fill="#C91433"/>
<path d="M818.42 79.6086C818.42 86.327 811.673 91.772 803.351 91.772C795.023 91.772 788.271 86.327 788.271 79.6086C788.271 72.892 795.023 67.4443 803.351 67.4443C811.673 67.4443 818.42 72.8922 818.42 79.6086ZM803.975 71.1361C803.501 69.7048 801.678 68.8551 799.905 69.2399C798.134 69.6231 797.076 71.0952 797.552 72.5264L802.721 88.0806C803.199 89.5134 805.018 90.3621 806.791 89.9833C808.564 89.5958 809.618 88.1245 809.142 86.6935L803.975 71.1361Z" fill="#C91433"/>
<path d="M570.25 62.2244L570.67 86.1208H570.463L563.525 62.2244H552.153V92.3263H559.677L559.257 67.5976H559.464L566.888 92.3263H577.774V62.2244H570.25ZM426.892 62.2244L421.205 92.6392H429.422L433.616 64.9676H433.79L437.884 92.6392H446.034L440.414 62.2244H426.892ZM472.873 62.2244L469.125 85.4217H468.918L465.137 62.2244H452.719L452.126 92.6392H459.757L459.963 65.2805H460.03L465.13 92.6392H472.86L477.96 65.2805H478.167L478.373 92.6392H486.003L485.278 62.2244H472.873ZM408.368 84.0035C408.681 84.6959 408.575 85.7346 408.475 86.2207C408.269 87.2594 407.536 88.2648 405.525 88.2648C403.581 88.2648 402.476 87.1528 402.476 85.5282V82.5786H394.326V84.9023C394.326 91.7337 399.699 93.7445 405.425 93.7445C410.905 93.7445 415.479 91.8402 416.212 86.8466C416.631 84.2099 416.318 82.4788 416.212 81.8529C414.787 75.4343 403.175 73.6366 402.376 70.0611C402.269 69.4353 402.269 68.8493 402.376 68.4299C402.582 67.4245 403.275 66.3858 405.113 66.3858C406.95 66.3858 407.956 67.4977 407.956 69.1223V70.96H415.586V68.8427C415.586 62.2177 409.587 61.2123 405.319 61.2123C399.906 61.2123 395.438 63.0167 394.639 67.9039C394.433 69.2222 394.326 70.4673 394.746 71.9987C395.957 78.2774 406.85 80.1151 408.375 83.9968L408.368 84.0035ZM507.376 84.0035C507.689 84.6959 507.583 85.6348 507.483 86.2207C507.277 87.2594 506.544 88.2648 504.533 88.2648C502.589 88.2648 501.484 87.1528 501.484 85.5282V82.5786H493.334V84.9023C493.334 91.6272 498.607 93.6779 504.327 93.6779C509.807 93.6779 514.281 91.8402 515.007 86.74C515.426 84.1034 515.113 82.4721 515.007 81.7463C513.795 75.4343 502.283 73.5301 501.484 70.0611C501.377 69.4353 501.377 68.8493 501.484 68.4299C501.657 67.4245 502.383 66.3858 504.22 66.3858C505.951 66.3858 507.063 67.4977 507.063 69.1223V70.96H514.587V68.8427C514.587 62.2177 508.695 61.2123 504.427 61.2123C499.014 61.2123 494.646 62.9102 493.847 67.9039C493.64 69.2222 493.64 70.4673 493.913 71.9987C495.165 78.2774 505.845 80.0085 507.37 83.9968L507.376 84.0035ZM533.004 88.065C535.155 88.065 535.74 86.6402 535.954 85.8478C536.06 85.5349 536.06 85.0155 536.06 84.7026V62.2311H543.79V84.11C543.79 84.7026 543.79 85.8412 543.684 86.1208C543.198 91.8402 538.69 93.6779 533.104 93.6779C527.518 93.6779 523.05 91.8402 522.524 86.1208C522.524 85.8412 522.417 84.6959 522.417 84.11V62.2311H530.148V84.7026C530.148 85.1221 530.148 85.5349 530.254 85.8478C530.254 86.6468 530.88 88.065 532.991 88.065H533.004ZM596.504 87.7521C598.761 87.7521 599.453 86.3272 599.66 85.5349C599.766 85.2219 599.766 84.7026 599.766 84.423V80.0219H596.61V75.5475H607.396V83.6972C607.396 84.3231 607.396 84.7026 607.29 85.7413C606.771 91.3275 601.983 93.2651 596.61 93.2651C591.197 93.2651 586.45 91.3209 585.93 85.7413C585.824 84.7026 585.824 84.3164 585.824 83.6972V70.8668C585.824 70.3807 585.93 69.3421 585.93 68.856C586.623 63.1366 591.204 61.2989 596.61 61.2989C601.983 61.2989 606.664 63.1366 607.29 68.856C607.396 69.7549 607.396 70.8668 607.396 70.8668V71.9055H599.766V70.1743C599.766 70.1743 599.766 69.4486 599.66 69.0291C599.553 68.3367 598.934 66.8119 596.61 66.8119C594.353 66.8119 593.767 68.2368 593.561 69.0291C593.454 69.4486 593.454 69.9679 593.454 70.4873V84.4296C593.454 84.8091 593.454 85.2286 593.561 85.5415C593.561 86.3405 594.36 87.7587 596.51 87.7587L596.504 87.7521Z" fill="#063A88"/>
<path d="M202.872 94.4218C194.231 93.5266 187.071 89.4402 184.3 83.8071C183.131 81.4299 183.065 81.0735 183.065 77.1314C183.065 73.1876 183.131 72.8328 184.3 70.4572C186.54 65.91 191.382 62.5017 198.202 60.6748C202.54 59.5144 210.141 59.5144 214.564 60.6831C220.794 62.3243 225.593 65.8586 227.861 70.4639C229.03 72.8361 229.092 73.1859 229.088 77.1264C229.082 80.8099 228.971 81.5211 228.103 83.3595C225.38 89.1285 219.499 92.8784 211.213 94.1283C207.748 94.6588 205.769 94.7201 202.872 94.4218ZM210.851 89.1551C214.876 87.8952 218.162 84.5001 219.123 80.6093C219.369 79.6147 219.49 77.5773 219.394 76.082C218.986 69.8091 215.016 65.6299 208.367 64.4711C202.34 63.4267 195.982 66.5118 193.723 71.5895C192.619 74.0711 192.395 78.5106 193.239 81.1929C195.394 88.046 203.172 91.5621 210.851 89.1551ZM150.153 93.5431C148.237 93.1287 145.531 92.3661 144.14 91.8655C142.749 91.3682 141.472 91.0366 141.303 91.1361C141.134 91.3019 140.997 91.7329 140.997 92.2468C140.997 93.1254 140.897 93.1585 138.544 93.1585H136.092V87.1227V81.0851H138.356C140.481 81.0851 140.619 81.0851 140.619 81.9637C140.619 84.016 144.198 87.3547 147.344 88.2367C153.396 89.9342 158.925 90.1365 163.208 88.8169C166.615 87.7725 167.942 85.5677 166.453 83.4424C165.647 82.2986 164.172 81.9505 155.212 80.8862C143.335 79.4605 140.521 78.7112 137.85 76.2279C134.527 73.1378 134.351 68.0071 137.459 64.7944C139.284 62.9078 140.807 62.1154 145.025 60.8572C151.182 59.0204 159.99 59.5973 166.179 62.2497C168.416 63.2112 168.916 63.1615 168.916 62.001C168.916 61.0727 168.982 61.0395 171.085 61.1556L173.255 61.3213L173.354 66.3858C173.47 72.0321 173.454 72.0586 170.966 72.0686C169.564 72.0736 169.4 71.9028 168.967 70.7755C168.236 68.7547 165.563 66.656 162.402 65.6199C160.004 64.8408 158.968 64.7247 154.007 64.7413C147.199 64.7562 145.018 65.3712 143.922 67.5512C143.367 68.6619 143.345 68.9603 143.773 69.6201C144.534 70.7805 146.166 71.1618 154.005 72.0669C157.948 72.5145 162.362 73.1113 163.815 73.3931C171.604 74.8851 175.294 78.136 175.314 83.5088C175.33 89.8182 168.997 93.7122 157.967 94.1631C154.528 94.3289 152.906 94.1631 150.145 93.5829L150.153 93.5431ZM234.564 90.7233V88.6412H237.165C239.188 88.6412 239.817 88.4754 239.995 88.0444C240.127 87.7128 240.223 82.8059 240.223 77.1297C240.223 65.0845 240.394 65.6265 236.612 65.6265H234.187V63.551V61.4772H241.756H249.325L254.678 66.2631C257.622 68.8973 262.378 73.1843 265.247 75.7902C268.116 78.3979 270.577 80.5729 270.718 80.6243C271.127 80.79 270.635 66.4571 270.217 66.041C270.01 65.8255 268.651 65.61 267.199 65.5437L264.558 65.3779V63.4914V61.6048H273.613H282.668L282.784 63.5858L282.9 65.5669H280.076C277.547 65.5669 277.226 65.5669 277.003 66.346C276.87 66.777 276.87 72.8991 277.036 79.9495L277.313 92.7673L274.184 92.6015H271.055L265.17 87.421C261.934 84.573 256.4 79.6644 252.872 76.513L246.458 70.7838L246.359 78.8223C246.292 83.2452 246.344 87.237 246.458 87.6962C246.644 88.4588 246.929 88.5417 249.583 88.6412L252.504 88.8069V90.6935V92.5783L243.543 92.7441L234.582 92.9099V90.8294L234.564 90.7233ZM299.989 92.265C299.873 91.9666 299.84 91.0714 299.907 90.279L300.023 88.8202L302.475 88.6544C305.642 88.4886 305.871 88.2068 305.871 84.0376V80.7784L299.457 73.5589C295.93 69.5886 292.715 66.1637 292.313 65.9498C291.912 65.7343 290.468 65.5519 289.106 65.5519H286.629V63.4698V61.3893L297.287 61.5551L307.946 61.7209L308.062 63.7019L308.178 65.6829H306.46C305.487 65.6829 304.743 65.8653 304.743 66.0808C304.743 66.2963 306.467 68.521 308.575 71.0093C312.229 75.3211 312.438 75.5001 313.043 74.8486C316.131 71.5215 320.223 66.3759 320.03 66.0642C319.897 65.8487 319.12 65.6829 318.303 65.6829H316.816V63.6074V61.5319H325.493H334.171V63.5908V65.6498L331.255 65.8155L328.339 65.9813L321.811 73.3285L315.283 80.6756L315.382 84.6476L315.482 88.6196L318.425 88.7854L321.368 88.9512L321.252 90.9156L321.136 92.88L310.657 93.0458C301.918 93.2116 300.143 93.0574 299.973 92.6148L299.989 92.265Z" fill="#0C0C0C"/>
<path d="M46.2038 62.4953C44.3629 63.6224 42.8379 65.1982 41.7718 67.0752C40.7056 68.9521 40.1331 71.0689 40.1078 73.2273C40.1151 75.6567 40.8348 78.0305 42.1779 80.0548C43.521 82.0792 45.4284 83.665 47.6639 84.616C46.7825 87.4598 45.4781 90.1546 43.7945 92.61C41.3855 96.0779 38.8666 99.5455 35.0339 99.5455C31.2013 99.5455 30.2155 97.3188 25.7987 97.3188C21.4914 97.3188 19.9582 99.6186 16.4539 99.6186C12.9496 99.6186 10.5042 96.4063 7.69331 92.4641C3.98037 86.9414 1.93979 80.4648 1.81641 73.8112C1.81641 62.8604 8.93457 57.0567 15.9428 57.0567C19.6662 57.0567 22.769 59.5021 25.1052 59.5021C27.3319 59.5021 30.7998 56.9104 35.0339 56.9104C37.2109 56.8542 39.3684 57.3342 41.3162 58.3081C43.2641 59.282 44.9426 60.72 46.2038 62.4953ZM33.0264 52.2747C34.8929 50.079 35.9495 47.3094 36.0196 44.4285C36.0228 44.0487 35.9861 43.6696 35.9101 43.2975C32.7039 43.6107 29.7391 45.1388 27.6238 47.5684C25.7393 49.6766 24.643 52.3722 24.521 55.1973C24.5224 55.5408 24.5591 55.8833 24.6306 56.2194C24.8833 56.2672 25.1399 56.2917 25.3972 56.2925C26.8748 56.175 28.3131 55.7582 29.6246 55.0675C30.9361 54.3768 32.0935 53.4266 33.0264 52.2747Z" fill="#0C0C0C"/>
<defs>
<clipPath id="clip0_3385_58571">
<rect width="89.8732" height="89.8732" fill="white" transform="translate(919.619 32.7416)"/>
</clipPath>
</defs>
</svg>
